<svg version="1.2" baseProfile="tiny-ps" xmlns="http://www.w3.org/2000/svg" viewBox="0 0 147 153" width="256" height="256">
	<title>microchat-logo-blue-425x73-svg</title>
	<style>
		tspan { white-space:pre }
		.shp0 { fill: #1d86a5 } 
		.shp1 { fill: none } 
	</style>
	<g id="Layer">
		<g id="Layer">
			<g id="blue">
				<g id="Layer">
					<g id="Layer">
						<path id="Layer" class="shp0" d="M212.14 103.91C211.75 95.64 211.33 85.7 211.37 76.97L211.11 76.97C209 84.82 206.32 93.46 203.56 101.56L194.16 129.27L185.16 129.27L176.67 101.94C174.16 93.72 171.87 85.02 170.19 76.97L169.98 76.97C169.71 85.35 169.32 95.58 168.83 104.29L167.41 130.02L156.51 130.02L160.77 66L176.14 66L184.48 91.72C186.78 99.29 188.83 106.88 190.37 114.02L190.65 114.02C192.37 107.02 194.57 99.2 197.05 91.67L205.93 66L221.1 66L224.78 130.03L213.38 130.03L212.14 103.91Z" />
						<path id="Layer" class="shp0" d="M248.33 66L248.33 130.03L236.63 130.03L236.63 66L248.33 66Z" />
						<path id="Layer" class="shp0" d="M307.68 128.14C304.91 129.52 298.82 131.03 291.06 131.03C270.75 131.03 258.38 118.28 258.38 98.78C258.38 77.73 273.08 65.01 292.66 65.01C300.36 65.01 305.8 66.57 308.17 67.84L305.63 77.16C302.65 75.8 298.38 74.65 293.14 74.65C280.09 74.65 270.69 82.8 270.69 98.19C270.69 112.3 278.91 121.24 292.98 121.24C297.71 121.24 302.65 120.3 305.74 118.92L307.68 128.14Z" />
						<path id="Layer" fill-rule="evenodd" class="shp0" d="M317.57 66.88C322.02 66.07 328.52 65.5 335.31 65.5C344.48 65.5 350.75 67.05 355.06 70.66C358.59 73.59 360.58 78.03 360.58 83.52C360.58 91.77 354.97 97.39 348.93 99.52L348.93 99.79C353.57 101.55 356.27 105.96 357.86 112.18C359.9 120.19 361.64 127.54 362.92 130.03L350.9 130.03C349.91 128.18 348.38 122.89 346.59 114.92C344.75 106.57 341.72 103.87 335.07 103.71L329.18 103.71L329.18 130.02L317.57 130.02L317.57 66.88ZM329.18 95.14L336.1 95.14C344.03 95.14 348.92 90.96 348.92 84.59C348.92 77.62 344.01 74.35 336.45 74.32C332.74 74.32 330.37 74.61 329.18 74.91L329.18 95.14Z" />
						<path id="Layer" fill-rule="evenodd" class="shp0" d="M428.47 97.38C428.47 118.82 415.47 131.08 397.83 131.08C379.75 131.08 368.29 117.26 368.29 98.51C368.29 78.85 380.71 64.96 398.78 64.96C417.46 64.96 428.47 79.07 428.47 97.38ZM380.65 98.27C380.65 111.33 387.25 121.72 398.43 121.72C409.72 121.72 416.12 111.21 416.12 97.81C416.12 85.73 410.13 74.32 398.46 74.32C386.88 74.31 380.65 85.12 380.65 98.27Z" />
						<path id="Layer" class="shp0" d="M484.47 128.14C481.7 129.52 475.61 131.03 467.85 131.03C447.54 131.03 435.17 118.28 435.17 98.78C435.17 77.73 449.87 65.01 469.45 65.01C477.15 65.01 482.59 66.57 484.96 67.84L482.42 77.16C479.44 75.8 475.17 74.65 469.93 74.65C456.88 74.65 447.48 82.8 447.48 98.19C447.48 112.3 455.7 121.24 469.77 121.24C474.5 121.24 479.44 120.3 482.53 118.92L484.47 128.14Z" />
						<path id="Layer" class="shp0" d="M506.07 66L506.07 91.61L533.13 91.61L533.13 66L544.83 66L544.83 130.03L533.13 130.03L533.13 101.78L506.07 101.78L506.07 130.03L494.37 130.03L494.37 66L506.07 66Z" />
						<path id="Layer" fill-rule="evenodd" class="shp0" d="M571.04 111.93L565.58 130.03L553.49 130.03L574.03 66L588.93 66L609.73 130.03L597.17 130.03L591.38 111.93L571.04 111.93ZM589.45 103.09L584.4 87.31C583.17 83.34 582.11 78.99 581.15 75.27L580.94 75.27C580.01 79.03 579.03 83.46 577.9 87.27L572.95 103.09L589.45 103.09Z" />
						<path id="Layer" class="shp0" d="M630.92 75.83L612.64 75.83L612.64 66L661.08 66L661.08 75.83L642.62 75.83L642.62 130.03L630.92 130.03L630.92 75.83L630.92 75.83Z" />
					</g>
				</g>
				<g id="Layer">
					<path id="Layer" class="shp0" d="M140.29 76.52C137.92 61.54 119.84 61.58 113.25 62.23C110.52 62.5 109.87 64.04 113.38 64.37C117.6 64.76 130.26 69.01 130.5 76.46C130.82 86.19 101.82 97.05 73.73 100.58C70.97 100.93 57.82 102.48 41.16 99.65C30.07 97.77 15.2 95.99 14.67 88.55C14.17 81.68 26.81 74.84 27.76 74.33C28.81 73.77 27.56 72.23 26.93 72.42C11.33 77.1 2.97 83.6 4.78 93.05C6.31 101.04 18.84 107.73 38.21 110.01C50.31 122.69 69.14 128.12 85.87 121.92L98.96 132.2C98.96 132.2 100.19 132.9 101.3 132.41C102.41 131.92 102.9 131.61 102.81 128.77C102.76 127.21 102.18 118.86 101.67 111.64C104.16 109.12 106.3 106.33 108.09 103.34C127.86 96.49 141.79 85.99 140.29 76.52Z" />
					<path id="Layer" class="shp1" d="M54.51 79.17C57.34 79.17 59.63 76.88 59.63 74.05C59.63 71.22 57.34 68.93 54.51 68.93C51.68 68.93 49.39 71.22 49.39 74.05C49.39 76.88 51.68 79.17 54.51 79.17Z" />
					<path id="Layer" fill-rule="evenodd" class="shp0" d="M29.69 88.79C25.72 69.81 36.3 49.94 55.51 42.31C57.46 41.53 59.44 40.92 61.42 40.44L59.51 27.85C57.39 27.18 55.84 25.21 55.84 22.86C55.84 19.95 58.2 17.59 61.11 17.59C64.02 17.59 66.38 19.95 66.38 22.86C66.38 24.85 65.27 26.55 63.65 27.45L65.51 39.67C83.96 37.11 102.26 46.91 109.24 64.47C111.57 70.32 112.38 76.41 111.88 82.33C109.01 83.82 104.9 85.76 99.81 87.57C96.07 88.9 86.62 92.01 68.69 93.34C59.15 94.05 46.25 94.33 30.9 92.68C30.41 91.22 30 90.28 29.69 88.79ZM83.4 71.05C83.4 73.86 85.76 76.14 88.67 76.14C89.4 76.14 90.08 75.99 90.71 75.74C92.61 74.97 93.95 73.07 93.95 71.04C93.95 68.92 92.61 67.11 90.71 66.34C90.08 66.06 89.39 65.91 88.67 65.91C89.4 65.91 90.09 66.07 90.71 66.34C90.08 66.08 89.39 65.94 88.67 65.94C85.76 65.94 83.4 68.22 83.4 71.05ZM88.67 76.17C89.39 76.17 90.08 76.02 90.71 75.74C90.09 76.01 89.4 76.17 88.67 76.17ZM49.39 74.04C49.39 76.87 51.68 79.16 54.51 79.16C57.34 79.16 59.63 76.87 59.63 74.04C59.63 71.21 57.34 68.92 54.51 68.92C51.68 68.92 49.39 71.21 49.39 74.04Z" />
				</g>
			</g>
		</g>
	</g>
</svg>